<?xml version="1.0" encoding="UTF-8"?>
<svg width="800px" height="600px" viewBox="0 0 800 600" version="1.1" xmlns="http://www.w3.org/2000/svg">
    <title>Blockchain Icon</title>
    <g stroke="none" stroke-width="1" fill="none" fill-rule="evenodd">
        <rect fill="#F8F9FA" x="0" y="0" width="800" height="600"></rect>
        <g transform="translate(200, 150)">
            <rect fill="#3498DB" x="0" y="0" width="100" height="100" rx="10"></rect>
            <rect fill="#3498DB" x="150" y="0" width="100" height="100" rx="10"></rect>
            <rect fill="#3498DB" x="300" y="0" width="100" height="100" rx="10"></rect>
            <rect fill="#3498DB" x="0" y="150" width="100" height="100" rx="10"></rect>
            <rect fill="#3498DB" x="150" y="150" width="100" height="100" rx="10"></rect>
            <rect fill="#3498DB" x="300" y="150" width="100" height="100" rx="10"></rect>
            <path d="M100,50 L150,50" stroke="#2C3E50" stroke-width="5"></path>
            <path d="M250,50 L300,50" stroke="#2C3E50" stroke-width="5"></path>
            <path d="M50,100 L50,150" stroke="#2C3E50" stroke-width="5"></path>
            <path d="M200,100 L200,150" stroke="#2C3E50" stroke-width="5"></path>
            <path d="M350,100 L350,150" stroke="#2C3E50" stroke-width="5"></path>
            <path d="M100,200 L150,200" stroke="#2C3E50" stroke-width="5"></path>
            <path d="M250,200 L300,200" stroke="#2C3E50" stroke-width="5"></path>
        </g>
    </g>
</svg>
